#N canvas 623 502 1067 758 12;
#X obj 253 468 symbol;
#X obj 253 493 outlet;
#X msg 669 74 major;
#X msg 672 104 minor;
#X msg 670 129 major7;
#X msg 669 155 dom7;
#X msg 672 185 minor7;
#X msg 670 210 aug;
#X msg 671 237 dim;
#X msg 671 263 dim7;
#X msg 671 287 five;
#X msg 671 316 mplusfive;
#X connect 0 0 1 0;
#X connect 2 0 0 0;
#X connect 3 0 0 0;
#X connect 4 0 0 0;
#X connect 5 0 0 0;
#X connect 6 0 0 0;
#X connect 7 0 0 0;
#X connect 8 0 0 0;
#X connect 9 0 0 0;
#X connect 10 0 0 0;
#X connect 11 0 0 0;
