#N canvas 436 176 833 739 12;
#X obj 310 215 list fromsymbol;
#X obj 408 33 inlet by_id;
#X obj 309 85 inlet by_name;
#X obj 501 248 list tosymbol;
#X obj 501 287 outlet name;
#X obj 410 113 t f f;
#X obj 309 109 t s s;
#X obj 310 343 list;
#X obj 310 300 t b l;
#X obj 501 224 text get \$1;
#X obj 310 246 text search \$1;
#X obj 310 276 text get \$2;
#X obj 310 377 outlet;
#X obj 547 89 inlet bang;
#X obj 408 57 i;
#X obj 408 81 change;
#X connect 0 0 10 0;
#X connect 1 0 14 0;
#X connect 2 0 6 0;
#X connect 3 0 4 0;
#X connect 5 0 11 0;
#X connect 5 1 9 0;
#X connect 6 0 0 0;
#X connect 6 1 4 0;
#X connect 7 0 12 0;
#X connect 8 0 7 0;
#X connect 8 1 7 1;
#X connect 9 0 3 0;
#X connect 10 0 11 0;
#X connect 11 0 8 0;
#X connect 13 0 7 0;
#X connect 14 0 15 0;
#X connect 15 0 5 0;
