#N canvas 785 142 581 526 12;
#X obj 220 89 t l l;
#X obj 220 118 list length;
#X obj 220 170 until;
#X obj 220 142 t f b;
#X obj 220 194 f;
#X msg 269 187 0;
#X obj 223 255 + 1;
#X msg 223 280 get \$1 1;
#X obj 223 305 list store;
#X obj 223 226 t f f f;
#X obj 170 353 f;
#X obj 170 377 pack f f;
#X obj 223 329 t b f;
#X obj 220 47 inlet;
#X obj 170 401 outlet;
#X connect 0 0 1 0;
#X connect 0 1 8 1;
#X connect 1 0 3 0;
#X connect 2 0 4 0;
#X connect 3 0 2 0;
#X connect 3 1 5 0;
#X connect 4 0 9 0;
#X connect 5 0 4 1;
#X connect 6 0 4 1;
#X connect 7 0 8 0;
#X connect 8 0 12 0;
#X connect 9 0 6 0;
#X connect 9 1 7 0;
#X connect 9 2 10 1;
#X connect 10 0 11 0;
#X connect 11 0 14 0;
#X connect 12 0 10 0;
#X connect 12 1 11 1;
#X connect 13 0 0 0;
