#N canvas 613 56 899 895 12;
#X obj 369 455 list store;
#X obj 317 190 list length;
#X obj 317 251 until;
#X msg 394 251 0;
#X obj 317 288 f;
#X obj 351 286 + 1;
#X msg 369 427 get \$1 1;
#X obj 369 512 f;
#X obj 446 518 +;
#X obj 369 485 t b f;
#X obj 394 278 t f f;
#X obj 318 53 inlet;
#X obj 317 150 t l b l b;
#X obj 447 620 t l l;
#X obj 492 519 t b b;
#X obj 446 589 list prepend;
#X obj 317 312 t f f;
#X obj 317 214 t f f;
#X obj 317 366 ==;
#X obj 317 339 + 1;
#X obj 317 390 sel 1;
#X obj 421 663 list;
#X obj 421 692 outlet;
#X msg 220 39 2 2 3;
#X obj 318 77 t b l;
#X msg 318 101 0;
#X obj 318 125 list;
#X connect 0 0 9 0;
#X connect 1 0 17 0;
#X connect 2 0 4 0;
#X connect 3 0 4 1;
#X connect 3 0 10 0;
#X connect 4 0 5 0;
#X connect 4 0 16 0;
#X connect 5 0 4 1;
#X connect 6 0 0 0;
#X connect 7 0 8 0;
#X connect 8 0 7 1;
#X connect 8 0 15 0;
#X connect 9 0 7 0;
#X connect 9 1 8 1;
#X connect 10 0 4 1;
#X connect 10 1 7 1;
#X connect 11 0 24 0;
#X connect 12 0 1 0;
#X connect 12 1 3 0;
#X connect 12 2 0 1;
#X connect 12 3 14 0;
#X connect 13 0 21 1;
#X connect 13 1 15 1;
#X connect 14 0 15 0;
#X connect 14 1 15 1;
#X connect 15 0 13 0;
#X connect 16 0 19 0;
#X connect 16 1 6 0;
#X connect 17 0 2 0;
#X connect 17 1 18 1;
#X connect 18 0 20 0;
#X connect 19 0 18 0;
#X connect 20 0 21 0;
#X connect 21 0 22 0;
#X connect 23 0 24 0;
#X connect 24 0 25 0;
#X connect 24 1 26 1;
#X connect 25 0 26 0;
#X connect 26 0 12 0;
