#N canvas 672 201 890 876 12;
#X obj 352 537 list length;
#X obj 283 617 list split;
#X obj 255 390 list;
#X obj 350 379 t l l;
#X obj 284 528 t l l;
#X obj 317 650 route bang;
#X obj 238 147 inlet;
#X obj 98 391 spigot 1;
#X msg 146 426 0, f 5;
#X msg 317 675 1;
#X obj 96 428 t b b;
#X obj 281 323 list;
#X obj 281 352 t l l;
#X obj 418 717 outlet;
#X obj 106 550 del 1;
#X obj 452 442 inlet delay;
#N canvas 661 145 840 550 test 0;
#X obj 244 35 tgl 15 0 empty empty empty 17 7 0 10 -262144 -1 -1 0
1;
#X obj 244 85 random 127;
#X obj 244 55 metro 1;
#X floatatom 353 30 5 0 0 0 - - -, f 5;
#X obj 353 54 b;
#X obj 283 221 outlet;
#X msg 244 109 \$1 127;
#X msg 405 33 1 \, 2 \, 3 \, 4 \, 5 \, 6;
#X connect 0 0 2 0;
#X connect 1 0 6 0;
#X connect 2 0 1 0;
#X connect 3 0 4 0;
#X connect 4 0 1 0;
#X connect 6 0 5 0;
#X connect 7 0 6 0;
#X restore 92 93 pd test;
#X obj 240 259 t l b;
#X obj 352 562 - 2;
#X obj 383 681 t b l;
#X connect 0 0 18 0;
#X connect 1 0 3 0;
#X connect 1 1 5 0;
#X connect 2 0 4 0;
#X connect 3 0 11 1;
#X connect 3 1 2 1;
#X connect 4 0 1 0;
#X connect 4 1 0 0;
#X connect 5 0 9 0;
#X connect 5 1 19 0;
#X connect 6 0 17 0;
#X connect 7 0 10 0;
#X connect 8 0 7 1;
#X connect 9 0 7 1;
#X connect 10 0 14 0;
#X connect 10 1 8 0;
#X connect 11 0 12 0;
#X connect 12 0 2 1;
#X connect 12 1 11 1;
#X connect 14 0 2 0;
#X connect 15 0 14 1;
#X connect 17 0 11 0;
#X connect 17 1 7 0;
#X connect 18 0 1 1;
#X connect 19 0 14 0;
#X connect 19 1 13 0;
