#N canvas 304 25 791 1037 12;
#X text 42 24 quantize;
#X obj 426 429 list length;
#X obj 171 351 inlet;
#X obj 443 112 inlet;
#X obj 302 442 t b f;
#X msg 477 581 0;
#X obj 459 609 f;
#X obj 494 610 + 1;
#X obj 290 542 until;
#X msg 459 633 get \$1 1;
#X obj 459 657 list store;
#X obj 329 770 ==;
#X obj 253 834 f;
#X obj 248 680 t f f f;
#X obj 510 770 f;
#X obj 329 802 sel 1 0;
#X obj 510 794 + 1;
#X obj 510 821 s \$0-inc_loop;
#X obj 290 349 r \$0-inc_loop;
#X obj 347 521 t b f;
#X obj 248 655 f;
#X obj 459 681 t b f;
#X obj 352 829 f;
#X obj 384 829 + 1;
#X obj 290 515 f;
#X obj 426 453 t f f;
#X obj 352 854 ==;
#X obj 290 482 t b b;
#X msg 393 787 1;
#X obj 352 881 sel 1;
#X obj 248 704 mod 12;
#X text 161 325 1 note;
#X obj 490 176 loadbang;
#X obj 253 858 t f b;
#X obj 443 249 ps.partsum;
#X text 435 93 2 scale;
#X msg 490 204 2 2 1 2 2 2 1;
#X text 606 206 major;
#X obj 381 396 t l l;
#X obj 171 376 unpack f f;
#X obj 251 901 pack f f;
#X obj 251 925 outlet;
#X connect 1 0 25 0;
#X connect 2 0 39 0;
#X connect 3 0 34 0;
#X connect 4 0 27 0;
#X connect 4 1 19 0;
#X connect 5 0 6 1;
#X connect 6 0 7 0;
#X connect 6 0 9 0;
#X connect 7 0 6 1;
#X connect 8 0 6 0;
#X connect 9 0 10 0;
#X connect 10 0 21 0;
#X connect 11 0 15 0;
#X connect 12 0 33 0;
#X connect 13 0 30 0;
#X connect 13 1 12 1;
#X connect 13 2 14 1;
#X connect 14 0 16 0;
#X connect 15 0 12 0;
#X connect 15 1 22 0;
#X connect 16 0 17 0;
#X connect 18 0 4 0;
#X connect 19 0 5 0;
#X connect 19 1 20 1;
#X connect 20 0 13 0;
#X connect 21 0 20 0;
#X connect 21 1 11 1;
#X connect 22 0 23 0;
#X connect 22 0 26 0;
#X connect 23 0 22 1;
#X connect 24 0 8 0;
#X connect 25 0 24 1;
#X connect 25 1 26 1;
#X connect 26 0 29 0;
#X connect 27 0 24 0;
#X connect 27 1 28 0;
#X connect 28 0 22 1;
#X connect 29 0 14 0;
#X connect 30 0 11 0;
#X connect 32 0 36 0;
#X connect 33 0 40 0;
#X connect 33 1 8 1;
#X connect 34 0 38 0;
#X connect 36 0 34 0;
#X connect 38 0 10 1;
#X connect 38 1 1 0;
#X connect 39 0 4 0;
#X connect 39 1 40 1;
#X connect 40 0 41 0;
