#N canvas 0 50 1109 765 12;
#X symbolatom 30 281 10 0 0 0 - - -, f 10;
#X msg 20 452 ionian;
#X obj 253 468 symbol;
#X msg 317 67 hex;
#X msg 352 69 penta;
#X msg 457 76 whole;
#X msg 513 78 chrom;
#X msg 559 77 harmonic;
#X msg 97 148 melminasc;
#X msg 564 131 hunmin;
#X msg 568 160 octa;
#X msg 669 74 mess1;
#X msg 672 104 mess2;
#X msg 670 129 mess3;
#X msg 669 155 mess4;
#X msg 672 185 mess5;
#X msg 670 210 mess6;
#X msg 671 237 mess7;
#X msg 671 263 suploc;
#X msg 671 287 hirajoshi;
#X msg 672 307 kumoi;
#X msg 671 431 bartok;
#X msg 846 383 neapolmaj;
#X msg 673 463 bhairav;
#X msg 676 493 locmaj;
#X msg 682 539 chinese;
#X msg 802 105 purvi;
#X msg 801 141 augmented;
#X msg 816 196 hindu;
#X msg 812 247 diminished;
#X msg 804 307 prometheus;
#X msg 845 408 neapolmin;
#X msg 750 356 iwato;
#X msg 95 125 melmindesc;
#X obj 253 493 outlet;
#X obj 517 12 loadbang;
#X connect 0 0 2 0;
#X connect 1 0 2 0;
#X connect 2 0 34 0;
#X connect 3 0 2 0;
#X connect 4 0 2 0;
#X connect 5 0 2 0;
#X connect 6 0 2 0;
#X connect 7 0 2 0;
#X connect 8 0 2 0;
#X connect 9 0 2 0;
#X connect 10 0 2 0;
#X connect 11 0 2 0;
#X connect 12 0 2 0;
#X connect 13 0 2 0;
#X connect 14 0 2 0;
#X connect 15 0 2 0;
#X connect 16 0 2 0;
#X connect 17 0 2 0;
#X connect 18 0 2 0;
#X connect 19 0 2 0;
#X connect 20 0 2 0;
#X connect 21 0 2 0;
#X connect 22 0 2 0;
#X connect 23 0 2 0;
#X connect 24 0 2 0;
#X connect 25 0 2 0;
#X connect 26 0 2 0;
#X connect 27 0 2 0;
#X connect 28 0 2 0;
#X connect 29 0 2 0;
#X connect 30 0 2 0;
#X connect 31 0 2 0;
#X connect 32 0 2 0;
#X connect 33 0 2 0;
#X connect 35 0 6 0;
