#N canvas 380 252 602 653 12;
#X obj 113 440 outlet;
#X obj 88 356 list split;
#X obj 89 395 list prepend;
#X obj 209 61 inlet rotate;
#X obj 115 50 inlet scale;
#X obj 189 159 i;
#X obj 257 150 list length;
#X obj 189 196 mod;
#X obj 188 254 == 0;
#X obj 114 95 t l b l;
#X obj 189 221 t f f;
#X obj 92 291 ps.switch;
#X connect 1 0 2 0;
#X connect 1 1 2 1;
#X connect 2 0 0 0;
#X connect 3 0 5 1;
#X connect 4 0 9 0;
#X connect 5 0 7 0;
#X connect 6 0 7 1;
#X connect 7 0 10 0;
#X connect 8 0 11 1;
#X connect 9 0 11 0;
#X connect 9 1 5 0;
#X connect 9 2 6 0;
#X connect 10 0 8 0;
#X connect 10 1 1 1;
#X connect 11 0 0 0;
#X connect 11 1 1 0;
