#N canvas 0 50 529 606 12;
#X obj 92 75 inlet;
#X obj 191 149 inlet;
#X obj 249 335 outlet;
#X obj 86 323 outlet;
#X obj 223 210 swap 1;
#X obj 223 235 -;
#X obj 129 213 spigot;
#X obj 191 179 t f f;
#X obj 92 100 t a a;
#X obj 248 307 spigot 1;
#X connect 0 0 8 0;
#X connect 1 0 7 0;
#X connect 4 0 5 0;
#X connect 4 1 5 1;
#X connect 5 0 9 1;
#X connect 6 0 3 0;
#X connect 7 0 6 1;
#X connect 7 1 4 0;
#X connect 8 0 9 0;
#X connect 8 1 6 0;
#X connect 9 0 2 0;
