#N canvas 947 312 833 739 12;
#X obj 310 246 text search SCALES_K;
#X obj 310 276 text get SCALES_V;
#X obj 310 215 list fromsymbol;
#X obj 310 494 outlet;
#X obj 408 33 inlet by_id;
#X obj 493 31 inlet rotate;
#X obj 309 85 inlet by_name;
#X obj 501 248 list tosymbol;
#X obj 501 224 text get SCALES_K;
#X obj 500 497 outlet name;
#X obj 310 377 ps.scale_rotate;
#X obj 410 113 t f f;
#X obj 309 109 t s s;
#X obj 410 137 i;
#X obj 310 343 list;
#X obj 310 300 t b l;
#X obj 493 129 t b f;
#X obj 493 55 change;
#X obj 408 57 change;
#X connect 0 0 1 0;
#X connect 1 0 15 0;
#X connect 2 0 0 0;
#X connect 4 0 18 0;
#X connect 5 0 17 0;
#X connect 6 0 12 0;
#X connect 7 0 9 0;
#X connect 8 0 7 0;
#X connect 10 0 3 0;
#X connect 11 0 13 0;
#X connect 11 1 8 0;
#X connect 12 0 2 0;
#X connect 12 1 9 0;
#X connect 13 0 1 0;
#X connect 14 0 10 0;
#X connect 15 0 14 0;
#X connect 15 1 14 1;
#X connect 16 0 14 0;
#X connect 16 1 10 1;
#X connect 17 0 16 0;
#X connect 18 0 11 0;
