#N canvas 0 50 723 893 12;
#X obj 300 490 list store;
#X obj 300 257 list length;
#X obj 300 292 until;
#X obj 300 191 t l b l;
#X msg 377 285 0;
#X obj 299 389 f;
#X obj 333 387 + 1;
#X msg 299 413 get \$1 1;
#X obj 330 144 list;
#X obj 248 544 +;
#X obj 205 119 t b f;
#X obj 454 63 loadbang;
#X msg 452 88 0 5 9;
#X obj 205 22 inlet root;
#X obj 355 65 inlet chord;
#X obj 205 46 unpack f f;
#X obj 249 581 pack f f;
#X obj 249 605 outlet;
#X connect 0 0 9 0;
#X connect 1 0 2 0;
#X connect 2 0 5 0;
#X connect 3 0 1 0;
#X connect 3 1 4 0;
#X connect 3 2 0 1;
#X connect 4 0 5 1;
#X connect 5 0 6 0;
#X connect 5 0 7 0;
#X connect 6 0 5 1;
#X connect 7 0 0 0;
#X connect 8 0 3 0;
#X connect 9 0 16 0;
#X connect 10 0 8 0;
#X connect 10 1 9 1;
#X connect 11 0 12 0;
#X connect 12 0 8 1;
#X connect 13 0 15 0;
#X connect 14 0 8 1;
#X connect 15 0 10 0;
#X connect 15 1 16 1;
#X connect 16 0 17 0;
