#N canvas 953 0 958 1028 12;
#X obj 15 589 notein;
#X obj 84 997 noteout;
#X msg 809 12 gui resize;
#X obj 809 36 send camomile;
#X obj 32 34 hsl 128 15 0 32 0 0 \$0-scale_idx empty SCALE -2 -8 0
10 -262144 -1 -1 0 0;
#X obj 222 816 ps.scales_map;
#X obj 318 24 PS.SCALES;
#X obj 222 790 ps.scales_msgs;
#X obj 29 64 nbx 5 14 0 11 0 0 \$0-scale_rotate empty ROTATE 0 -8 0
10 -262144 -1 -1 0 256;
#X symbolatom 167 34 12 0 0 0 - #0-scale_name -, f 12;
#X obj 267 715 r \$0-scale_idx;
#X obj 310 843 s \$0-scale_name;
#X obj 346 750 r \$0-scale_rotate;
#X obj 29 103 tgl 18 0 \$0-chord_switch empty CHORD_on/off 22 7 0 10
-262144 -1 -1 1 1;
#X obj 15 651 ps.switch;
#X obj 85 622 r \$0-chord_switch;
#X obj 15 624 pack f f;
#X obj 15 684 ps.to_chord_w_vel;
#X obj 84 948 ps.quantize_w_vel;
#X obj 84 971 unpack f f;
#X floatatom 264 482 5 0 0 0 - - -, f 5;
#X floatatom 113 454 5 0 0 0 - - -, f 5;
#X obj 76 818 ps.queue_w_vel;
#X obj 78 782 t l;
#X symbolatom 165 147 12 0 0 0 - #0-chord_name -, f 12;
#X obj 317 51 PS.CHORDS;
#X obj 222 866 ps.scale_rotate;
#X obj 346 797 t b f;
#X obj 222 890 print;
#X obj 346 774 change;
#X obj 434 566 ps.chords_msgs;
#X obj 432 591 ps.key_value_map CHORDS_K CHORDS_V;
#X obj 667 608 s \$0-chord_name;
#X text 758 108 ps.to_chord_w_vel \; ps.queue_w_vel \; ps.switch \;
ps.quantize_w_vel \; ps.scales_msgs \; ps.scales_map \; PS.SCALES \;
ps.scale_rotate \; ps.partsum \; ps.key_value_map \; ps.CHORDS \;;
#X msg 248 417 60;
#X obj 32 147 hsl 128 15 0 9 0 0 \$0-chord_idx empty CHORD -2 -8 0
10 -262144 -1 -1 11700 0;
#X obj 549 564 r \$0-chord_idx;
#X obj 267 739 i;
#X obj 267 763 change;
#X obj 32 177 hsl 128 15 -8 8 0 0 empty \$0-transpose_reset 1st_transpose
-2 -8 0 8 -262144 -1 -1 6350 0;
#X obj 754 296 loadbang;
#X msg 754 320 0;
#X obj 754 344 s \$0-transpose_reset;
#X obj 32 207 hsl 128 15 -8 8 0 0 empty \$0-transpose_reset 1st_transpose
-2 -8 0 8 -262144 -1 -1 6350 0;
#X obj 32 237 hsl 128 15 -8 8 0 0 empty \$0-transpose_reset 1st_transpose
-2 -8 0 8 -262144 -1 -1 6350 0;
#X obj 32 267 hsl 128 15 -8 8 0 0 empty \$0-transpose_reset 1st_transpose
-2 -8 0 8 -262144 -1 -1 6350 0;
#X obj 32 297 hsl 128 15 -8 8 0 0 empty \$0-transpose_reset 1st_transpose
-2 -8 0 8 -262144 -1 -1 6350 0;
#X obj 32 327 hsl 128 15 -8 8 0 0 empty \$0-transpose_reset 1st_transpose
-2 -8 0 8 -262144 -1 -1 6350 0;
#X obj 366 629 list store;
#X connect 0 0 16 0;
#X connect 0 1 16 1;
#X connect 2 0 3 0;
#X connect 5 0 26 0;
#X connect 5 1 11 0;
#X connect 7 0 5 0;
#X connect 10 0 37 0;
#X connect 12 0 29 0;
#X connect 14 0 17 0;
#X connect 14 1 23 0;
#X connect 15 0 14 1;
#X connect 16 0 14 0;
#X connect 17 0 23 0;
#X connect 18 0 19 0;
#X connect 19 0 1 0;
#X connect 19 1 1 1;
#X connect 20 0 16 0;
#X connect 21 0 16 1;
#X connect 22 0 18 0;
#X connect 23 0 22 0;
#X connect 26 0 18 1;
#X connect 26 0 28 0;
#X connect 27 0 5 2;
#X connect 27 1 26 1;
#X connect 29 0 27 0;
#X connect 30 0 31 0;
#X connect 31 0 17 1;
#X connect 31 0 48 1;
#X connect 31 1 32 0;
#X connect 34 0 20 0;
#X connect 36 0 31 1;
#X connect 37 0 38 0;
#X connect 38 0 5 1;
#X connect 40 0 41 0;
#X connect 41 0 42 0;
#X coords 0 -1 1 1 300 400 1 0 0;
