#N canvas 738 65 907 850 12;
#X obj 47 224 notein;
#X obj 109 797 noteout;
#X msg 448 731 gui resize;
#X obj 448 755 send camomile;
#X obj 32 34 hsl 128 15 0 32 0 0 \$0-scale_idx empty SCALE -2 -8 0
10 -262144 -1 -1 0 0;
#X obj 205 596 ps.scales_map;
#X obj 321 8 PS.SCALES;
#X obj 205 557 ps.scales_msgs;
#X obj 30 70 nbx 5 14 0 11 0 0 \$0-scale_rotate empty ROTATE 0 -8 0
10 -262144 -1 -1 0 256;
#X symbolatom 167 31 10 0 0 0 - #0-scale_name -, f 10;
#X obj 250 515 r \$0-scale_idx;
#X obj 296 640 s \$0-scale_name;
#X obj 329 557 r \$0-scale_rotate;
#X obj 32 111 tgl 18 0 \$0-chord_switch empty CHORD 22 7 0 12 -262144
-1 -1 0 1;
#X obj 40 391 ps.switch;
#X obj 166 303 r \$0-chord_switch;
#X obj 48 322 pack f f;
#X obj 30 462 ps.to_chord_w_vel;
#X obj 99 636 ps.quantize_w_vel;
#X obj 99 728 unpack f f;
#X floatatom 366 185 5 0 0 0 - - -, f 5;
#X floatatom 128 232 5 0 0 0 - - -, f 5;
#X obj 91 596 ps.queue_w_vel;
#X obj 93 560 t l;
#X text 584 92 ps.to_chord_w_vel \; ps.queue_w_vel \; ps.switch \;
ps.quantize_w_vel \; ps.scales_msgs \; ps.scales_map \; PS.SCALES \;
ps.scale_rotate \; ps.partsum;
#X symbolatom 180 114 10 0 0 0 - - -, f 10;
#X connect 0 0 16 0;
#X connect 0 1 16 1;
#X connect 2 0 3 0;
#X connect 5 0 18 1;
#X connect 5 1 11 0;
#X connect 7 0 5 0;
#X connect 10 0 5 1;
#X connect 12 0 5 2;
#X connect 14 0 17 0;
#X connect 14 1 23 0;
#X connect 15 0 14 1;
#X connect 16 0 14 0;
#X connect 17 0 23 0;
#X connect 18 0 19 0;
#X connect 19 0 1 0;
#X connect 19 1 1 1;
#X connect 20 0 16 0;
#X connect 21 0 16 1;
#X connect 22 0 18 0;
#X connect 23 0 22 0;
#X coords 0 -1 1 1 300 200 1 0 0;
