#N canvas 953 0 958 1028 12;
#X obj 12 476 notein;
#X obj 84 997 noteout;
#X msg 809 12 gui resize;
#X obj 809 36 send camomile;
#X obj 32 34 hsl 128 15 0 32 0 0 \$0-scale_idx empty SCALE -2 -8 0
10 -262144 -1 -1 6600 0;
#X obj 222 816 ps.scales_map;
#X obj 318 24 PS.SCALES;
#X obj 222 790 ps.scales_msgs;
#X obj 29 64 nbx 5 14 0 11 0 0 \$0-scale_rotate empty ROTATE 0 -8 0
10 -262144 -1 -1 0 256;
#X symbolatom 167 34 12 0 0 0 - #0-scale_name -, f 12;
#X obj 267 715 r \$0-scale_idx;
#X obj 310 843 s \$0-scale_name;
#X obj 346 750 r \$0-scale_rotate;
#X obj 29 103 tgl 18 0 \$0-chord_switch empty CHORD_on/off 22 7 0 10
-262144 -1 -1 1 1;
#X obj 12 538 ps.switch;
#X obj 82 509 r \$0-chord_switch;
#X obj 12 511 pack f f;
#X obj 12 601 ps.to_chord_w_vel;
#X obj 84 948 ps.quantize_w_vel;
#X obj 84 971 unpack f f;
#X floatatom 264 482 5 0 0 0 - - -, f 5;
#X floatatom 113 424 5 0 0 0 - - -, f 5;
#X obj 72 879 ps.queue_w_vel;
#X obj 72 845 t l;
#X symbolatom 165 147 12 0 0 0 - #0-chord_name -, f 12;
#X obj 317 51 PS.CHORDS;
#X obj 222 866 ps.scale_rotate;
#X obj 346 797 t b f;
#X obj 346 774 change;
#X obj 434 566 ps.chords_msgs;
#X obj 432 591 ps.key_value_map CHORDS_K CHORDS_V;
#X obj 667 608 s \$0-chord_name;
#X msg 264 455 60;
#X obj 32 147 hsl 128 15 0 9 0 0 \$0-chord_idx empty CHORD -2 -8 0
10 -262144 -1 -1 8100 0;
#X obj 549 564 r \$0-chord_idx;
#X obj 267 739 i;
#X obj 267 763 change;
#X obj 32 177 hsl 128 15 -2 2 0 0 \$0-1st \$0-transpose_reset 1st_transpose
-2 -8 0 8 -262144 -1 -1 10000 0;
#X obj 754 296 loadbang;
#X msg 754 320 0;
#X obj 754 344 s \$0-transpose_reset;
#X obj 32 207 hsl 128 15 -2 2 0 0 \$0-2nd \$0-transpose_reset 2nd_transpose
-2 -8 0 8 -262144 -1 -1 0 0;
#X obj 32 237 hsl 128 15 -2 2 0 0 \$0-3rd \$0-transpose_reset 3rd_transpose
-2 -8 0 8 -262144 -1 -1 0 0;
#X obj 32 267 hsl 128 15 -2 2 0 0 \$0-4th \$0-transpose_reset 4th_transpose
-2 -8 0 8 -262144 -1 -1 6350 0;
#X obj 32 297 hsl 128 15 -2 2 0 0 \$0-5th \$0-transpose_reset 5th_transpose
-2 -8 0 8 -262144 -1 -1 6350 0;
#X obj 32 327 hsl 128 15 -2 2 0 0 \$0-6st \$0-transpose_reset 6st_transpose
-2 -8 0 8 -262144 -1 -1 6350 0;
#X obj 432 625 s \$0-chord;
#X obj 563 43 r \$0-chord;
#X obj 563 67 ps.list_iterate;
#X text 758 108 ps.to_chord_w_vel \; ps.queue_w_vel \; ps.switch \;
ps.quantize_w_vel \; ps.scales_msgs \; ps.scales_map \; PS.SCALES \;
ps.scale_rotate \; ps.partsum \; ps.key_value_map \; ps.CHORDS \; ps.list_iterate
\;;
#X obj 364 179 bng 15 250 50 0 empty empty reset 17 7 0 10 -262144
-1 -1;
#X msg 364 199 0;
#X obj 364 223 s \$0-transpose_reset;
#N canvas 0 50 921 588 transpose_receivers 0;
#X obj 101 172 pack f f f f f f;
#X obj 63 69 r \$0-1st;
#X obj 150 93 t b f;
#X obj 222 93 t b f;
#X obj 300 93 t b f;
#X obj 372 94 t b f;
#X obj 458 93 t b f;
#X obj 101 196 outlet;
#X obj 150 19 r \$0-2nd;
#X obj 222 19 r \$0-3rd;
#X obj 300 19 r \$0-4th;
#X obj 373 19 r \$0-5th;
#X obj 458 19 r \$0-6th;
#X obj 150 43 i;
#X obj 150 67 change;
#X obj 221 46 i;
#X obj 221 70 change;
#X obj 298 44 i;
#X obj 298 68 change;
#X obj 369 47 i;
#X obj 369 71 change;
#X obj 459 44 i;
#X obj 459 68 change;
#X obj 31 122 i;
#X obj 31 146 change;
#X connect 0 0 7 0;
#X connect 1 0 23 0;
#X connect 2 0 0 0;
#X connect 2 1 0 1;
#X connect 3 0 0 0;
#X connect 3 1 0 2;
#X connect 4 0 0 0;
#X connect 4 1 0 3;
#X connect 5 0 0 0;
#X connect 5 1 0 4;
#X connect 6 0 0 0;
#X connect 6 1 0 5;
#X connect 8 0 13 0;
#X connect 9 0 15 0;
#X connect 10 0 17 0;
#X connect 11 0 19 0;
#X connect 12 0 21 0;
#X connect 13 0 14 0;
#X connect 14 0 2 0;
#X connect 15 0 16 0;
#X connect 16 0 3 0;
#X connect 17 0 18 0;
#X connect 18 0 4 0;
#X connect 19 0 20 0;
#X connect 20 0 5 0;
#X connect 21 0 22 0;
#X connect 22 0 6 0;
#X connect 23 0 24 0;
#X connect 24 0 0 0;
#X restore 229 550 pd transpose_receivers;
#N canvas 164 308 931 644 transpose 0;
#X obj 201 213 list store;
#X obj 388 27 loadbang;
#X msg 388 71 0 0 0 0 0 0;
#X obj 201 17 inlet;
#X obj 270 598 outlet;
#X obj 201 163 unpack f f;
#X msg 201 187 get \$1 1;
#X obj 201 261 * 12;
#X obj 201 237 i;
#X obj 201 285 +;
#X obj 201 139 ps.list_iterate;
#X obj 406 136 inlet;
#X obj 201 340 list prepend;
#X obj 236 509 spigot;
#X obj 236 548 t b l;
#X obj 336 428 list length;
#X obj 281 462 ==;
#X obj 202 385 t l l l;
#X obj 246 414 list length;
#X obj 406 160 t b l;
#X obj 199 71 list;
#X obj 200 97 t l b l;
#X obj 201 41 t b l;
#X connect 0 0 8 0;
#X connect 1 0 2 0;
#X connect 2 0 0 1;
#X connect 3 0 22 0;
#X connect 5 0 6 0;
#X connect 5 1 9 1;
#X connect 6 0 0 0;
#X connect 7 0 9 0;
#X connect 8 0 7 0;
#X connect 9 0 12 0;
#X connect 10 0 5 0;
#X connect 11 0 19 0;
#X connect 12 0 17 0;
#X connect 13 0 14 0;
#X connect 14 1 4 0;
#X connect 15 0 16 1;
#X connect 16 0 13 1;
#X connect 17 0 12 1;
#X connect 17 1 13 0;
#X connect 17 2 18 0;
#X connect 18 0 16 0;
#X connect 19 0 20 0;
#X connect 19 1 0 1;
#X connect 20 0 21 0;
#X connect 21 0 10 0;
#X connect 21 1 12 1;
#X connect 21 2 15 0;
#X connect 22 0 20 0;
#X connect 22 1 20 1;
#X restore 153 615 pd transpose;
#X obj 149 539 r \$0-chord;
#X msg 639 329 0 4 8;
#X obj 44 645 print;
#X connect 0 0 16 0;
#X connect 0 1 16 1;
#X connect 2 0 3 0;
#X connect 5 0 26 0;
#X connect 5 1 11 0;
#X connect 7 0 5 0;
#X connect 10 0 35 0;
#X connect 12 0 28 0;
#X connect 14 0 17 0;
#X connect 14 1 23 0;
#X connect 15 0 14 1;
#X connect 16 0 14 0;
#X connect 17 0 23 0;
#X connect 17 0 57 0;
#X connect 18 0 19 0;
#X connect 19 0 1 0;
#X connect 19 1 1 1;
#X connect 20 0 16 0;
#X connect 21 0 16 1;
#X connect 22 0 18 0;
#X connect 23 0 22 0;
#X connect 26 0 18 1;
#X connect 27 0 5 2;
#X connect 27 1 26 1;
#X connect 28 0 27 0;
#X connect 29 0 30 0;
#X connect 30 0 46 0;
#X connect 30 1 31 0;
#X connect 32 0 20 0;
#X connect 34 0 30 1;
#X connect 35 0 36 0;
#X connect 36 0 5 1;
#X connect 38 0 39 0;
#X connect 39 0 40 0;
#X connect 47 0 48 0;
#X connect 50 0 51 0;
#X connect 51 0 52 0;
#X connect 53 0 54 1;
#X connect 54 0 17 1;
#X connect 55 0 54 0;
#X connect 56 0 46 0;
#X coords 0 -1 1 1 300 400 1 0 0;
