#N canvas 896 0 958 1028 12;
#X obj 18 403 notein;
#X msg 809 12 gui resize;
#X obj 809 36 send camomile;
#X obj 32 34 hsl 128 15 0 32 0 0 \$0-scale_idx \$0-scale_idx_param
SCALE -2 -8 0 10 -262144 -1 -1 3100 0;
#X obj 456 733 ps.scales_map;
#X obj 456 707 ps.scales_msgs;
#X obj 29 64 nbx 5 14 0 11 0 0 \$0-scale_rotate \$0-scale_rotate_param
ROTATE 0 -8 0 10 -262144 -1 -1 2 256;
#X symbolatom 167 34 12 0 0 0 - #0-scale_name -, f 12;
#X obj 501 632 r \$0-scale_idx;
#X obj 544 760 s \$0-scale_name;
#X obj 580 667 r \$0-scale_rotate;
#X obj 29 103 tgl 18 0 \$0-chord_switch \$0-chord_switch_param CHORD_on/off
22 7 0 10 -262144 -1 -1 1 1;
#X obj 18 613 ps.switch;
#X obj 84 594 r \$0-chord_switch;
#X obj 18 580 pack f f;
#X obj 18 636 ps.to_chord_w_vel;
#X obj 78 799 ps.quantize_w_vel;
#X obj 77 851 unpack f f;
#X floatatom 104 523 5 0 0 0 - - -, f 5;
#X floatatom 172 701 5 0 0 0 - - -, f 5;
#X obj 77 768 ps.queue_w_vel;
#X obj 77 714 t l;
#X symbolatom 165 147 12 0 0 0 - #0-chord_name -, f 12;
#X obj 456 783 ps.scale_rotate;
#X obj 580 714 t b f;
#X obj 580 691 change;
#X obj 466 1190 ps.chords_msgs;
#X obj 699 1232 s \$0-chord_name;
#X msg 104 496 60;
#X obj 32 147 hsl 128 15 0 15 0 0 \$0-chord_idx \$0-chord_idx_param
CHORD -2 -8 0 10 -262144 -1 -1 500 0;
#X obj 581 1188 r \$0-chord_idx;
#X obj 501 656 i;
#X obj 501 680 change;
#X obj 32 177 hsl 128 15 -2 2 0 0 \$0-1st \$0-1st_param 1st_transpose
-2 -8 0 8 -262144 -1 -1 6300 0;
#X obj 754 296 loadbang;
#X msg 754 320 0;
#X obj 754 344 s \$0-transpose_reset;
#X obj 32 207 hsl 128 15 -2 2 0 0 \$0-2nd \$0-2nd_param 2nd_transpose
-2 -8 0 8 -262144 -1 -1 6300 0;
#X obj 32 237 hsl 128 15 -2 2 0 0 \$0-3rd \$0-3rd_param 3rd_transpose
-2 -8 0 8 -262144 -1 -1 6600 0;
#X obj 32 267 hsl 128 15 -2 2 0 0 \$0-4th \$0-4th_param 4th_transpose
-2 -8 0 8 -262144 -1 -1 6000 0;
#X obj 32 297 hsl 128 15 -2 2 0 0 \$0-5th \$0-5th_param 5th_transpose
-2 -8 0 8 -262144 -1 -1 6350 0;
#X obj 32 327 hsl 128 15 -2 2 0 0 \$0-6st \$0-6st_param 6st_transpose
-2 -8 0 8 -262144 -1 -1 6350 0;
#X obj 464 1249 s \$0-chord;
#X text 758 108 ps.to_chord_w_vel \; ps.queue_w_vel \; ps.switch \;
ps.quantize_w_vel \; ps.scales_msgs \; ps.scales_map \; PS.SCALES \;
ps.scale_rotate \; ps.partsum \; ps.key_value_map \; ps.CHORDS \; ps.list_iterate
\;;
#X obj 183 182 bng 15 250 50 0 empty empty reset 17 7 0 10 -262144
-1 -1;
#X msg 183 202 0;
#N canvas 0 50 921 588 transpose_receivers 0;
#X obj 101 172 pack f f f f f f;
#X obj 63 69 r \$0-1st;
#X obj 150 93 t b f;
#X obj 222 93 t b f;
#X obj 300 93 t b f;
#X obj 372 94 t b f;
#X obj 458 93 t b f;
#X obj 101 196 outlet;
#X obj 150 19 r \$0-2nd;
#X obj 222 19 r \$0-3rd;
#X obj 300 19 r \$0-4th;
#X obj 373 19 r \$0-5th;
#X obj 458 19 r \$0-6th;
#X obj 150 43 i;
#X obj 150 67 change;
#X obj 221 46 i;
#X obj 221 70 change;
#X obj 298 44 i;
#X obj 298 68 change;
#X obj 369 47 i;
#X obj 369 71 change;
#X obj 459 44 i;
#X obj 459 68 change;
#X obj 31 122 i;
#X obj 31 146 change;
#X connect 0 0 7 0;
#X connect 1 0 23 0;
#X connect 2 0 0 0;
#X connect 2 1 0 1;
#X connect 3 0 0 0;
#X connect 3 1 0 2;
#X connect 4 0 0 0;
#X connect 4 1 0 3;
#X connect 5 0 0 0;
#X connect 5 1 0 4;
#X connect 6 0 0 0;
#X connect 6 1 0 5;
#X connect 8 0 13 0;
#X connect 9 0 15 0;
#X connect 10 0 17 0;
#X connect 11 0 19 0;
#X connect 12 0 21 0;
#X connect 13 0 14 0;
#X connect 14 0 2 0;
#X connect 15 0 16 0;
#X connect 16 0 3 0;
#X connect 17 0 18 0;
#X connect 18 0 4 0;
#X connect 19 0 20 0;
#X connect 20 0 5 0;
#X connect 21 0 22 0;
#X connect 22 0 6 0;
#X connect 23 0 24 0;
#X connect 24 0 0 0;
#X restore 238 626 pd transpose_receivers;
#N canvas 164 308 931 644 transpose 0;
#X obj 201 213 list store;
#X obj 388 27 loadbang;
#X msg 388 71 0 0 0 0 0 0;
#X obj 201 17 inlet;
#X obj 270 598 outlet;
#X obj 201 163 unpack f f;
#X msg 201 187 get \$1 1;
#X obj 201 261 * 12;
#X obj 201 237 i;
#X obj 201 285 +;
#X obj 201 139 ps.list_iterate;
#X obj 406 136 inlet;
#X obj 201 340 list prepend;
#X obj 236 509 spigot;
#X obj 236 548 t b l;
#X obj 336 428 list length;
#X obj 281 462 ==;
#X obj 202 385 t l l l;
#X obj 246 414 list length;
#X obj 406 160 t b l;
#X obj 199 71 list;
#X obj 200 97 t l b l;
#X obj 201 41 t b l;
#X connect 0 0 8 0;
#X connect 1 0 2 0;
#X connect 2 0 0 1;
#X connect 3 0 22 0;
#X connect 5 0 6 0;
#X connect 5 1 9 1;
#X connect 6 0 0 0;
#X connect 7 0 9 0;
#X connect 8 0 7 0;
#X connect 9 0 12 0;
#X connect 10 0 5 0;
#X connect 11 0 19 0;
#X connect 12 0 17 0;
#X connect 13 0 14 0;
#X connect 14 1 4 0;
#X connect 15 0 16 1;
#X connect 16 0 13 1;
#X connect 17 0 12 1;
#X connect 17 1 13 0;
#X connect 17 2 18 0;
#X connect 18 0 16 0;
#X connect 19 0 20 0;
#X connect 19 1 0 1;
#X connect 20 0 21 0;
#X connect 21 0 10 0;
#X connect 21 1 12 1;
#X connect 21 2 15 0;
#X connect 22 0 20 0;
#X connect 22 1 20 1;
#X restore 159 650 pd transpose;
#X obj 159 626 r \$0-chord;
#X obj 360 141 bng 24 250 50 0 \$0-mute_notes empty mute_notes -8 -12
0 10 -262144 -1 -1;
#X obj 318 24 PS.SCALES;
#X obj 317 51 PS.CHORDS;
#X obj 464 1215 ps.key_value_map CHORD_K CHORD_V;
#X obj 272 878 bag;
#X msg 272 904 \$1 0;
#X msg 271 852 flush;
#X obj 271 812 r \$0-mute_notes;
#X obj 76 826 t l l;
#N canvas 259 210 450 693 randomize_vel 0;
#X obj 146 33 inlet;
#X obj 146 57 unpack f f;
#X obj 213 138 t f b;
#X obj 296 135 inlet var;
#X obj 210 229 -;
#X obj 138 291 pack f f;
#X obj 138 315 outlet;
#X obj 245 166 random 5;
#X obj 177 97 moses 1;
#X connect 0 0 1 0;
#X connect 1 0 5 0;
#X connect 1 1 8 0;
#X connect 2 0 4 0;
#X connect 2 1 7 0;
#X connect 3 0 7 1;
#X connect 4 0 5 1;
#X connect 5 0 6 0;
#X connect 7 0 4 1;
#X connect 8 0 5 1;
#X connect 8 1 2 0;
#X restore 115 741 pd randomize_vel;
#X floatatom 151 520 5 0 0 0 - - -, f 5;
#X obj 95 544 f;
#X obj 137 466 bng 15 250 50 0 empty empty empty 17 7 0 10 -262144
-1 -1;
#X obj 202 472 metro 50;
#X floatatom 260 443 5 0 0 0 - - -, f 5;
#X obj 204 444 tgl 15 0 empty empty empty 17 7 0 10 -262144 -1 -1 0
1;
#X obj 51 485 inlet;
#X obj 130 899 moses 109;
#X obj 77 875 moses 21;
#X obj 156 949 f;
#X obj 130 923 t f b;
#X obj 165 63 bng 15 250 50 0 \$0-chrom \$0-chrom_param reset 17 7
0 10 -262144 -1 -1;
#X msg 448 637 chrom;
#X obj 445 606 r \$0-chrom;
#X obj 448 661 symbol;
#N canvas 266 37 901 700 receive 0;
#X obj 101 43 receive param;
#X obj 49 543 change;
#X obj 49 567 s \$0-scale_idx_param;
#X obj 105 516 change;
#X obj 105 540 s \$0-scale_rotate_param;
#X obj 158 485 change;
#X obj 158 509 s \$0-chrom_param;
#X obj 211 459 change;
#X obj 211 483 s \$0-chord_switch_param;
#X obj 269 434 change;
#X obj 269 458 s \$0-chord_idx_param;
#X obj 328 404 change;
#X obj 328 428 s \$0-1st_param;
#X obj 405 375 change, f 8;
#X obj 405 399 s \$0-2nd_param;
#X obj 488 341 change, f 8;
#X obj 569 305 change, f 8;
#X obj 649 274 change, f 8;
#X obj 719 244 change, f 8;
#X obj 101 67 route 1 2 3 4 5 6 7 8 9 10 11 12, f 71;
#X obj 488 365 s \$0-3rd_param;
#X obj 569 329 s \$0-4th_param;
#X obj 649 298 s \$0-5th_param;
#X obj 719 268 s \$0-6th_param;
#X obj 214 42 receive \$1-param;
#X connect 0 0 19 0;
#X connect 1 0 2 0;
#X connect 3 0 4 0;
#X connect 5 0 6 0;
#X connect 7 0 8 0;
#X connect 9 0 10 0;
#X connect 11 0 12 0;
#X connect 13 0 14 0;
#X connect 15 0 20 0;
#X connect 16 0 21 0;
#X connect 17 0 22 0;
#X connect 18 0 23 0;
#X connect 19 0 1 0;
#X connect 19 1 3 0;
#X connect 19 2 5 0;
#X connect 19 3 7 0;
#X connect 19 4 9 0;
#X connect 19 5 11 0;
#X connect 19 6 13 0;
#X connect 19 7 15 0;
#X connect 19 8 16 0;
#X connect 19 9 17 0;
#X connect 19 10 18 0;
#X connect 24 0 19 0;
#X restore 351 208 pd receive;
#X floatatom 256 765 5 0 0 0 - - -, f 5;
#X obj 313 299 r param;
#X obj 313 323 b;
#X msg 313 347 1;
#X obj 313 371 change;
#X obj 313 395 t f f;
#X obj 18 426 spigot 0;
#X obj 32 456 spigot 0;
#X obj 253 681 loadbang;
#X obj 391 262 loadbang;
#X obj 130 986 pack f f;
#X obj 131 1137 noteout;
#X msg 254 705 1;
#X obj 304 961 print;
#X msg 220 1038 4;
#X obj 132 1073 poly 4 0;
#N canvas 1029 329 825 497 routes 0;
#X obj 164 92 inlet;
#X obj 164 145 list prepend;
#X floatatom 93 98 5 0 0 0 - - -, f 5;
#X obj 311 53 loadbang;
#X msg 311 77 0;
#X obj 221 50 inlet;
#X obj 153 253 outlet;
#X obj 207 253 outlet;
#X obj 261 255 outlet;
#X obj 164 169 route 0 1, f 38;
#X connect 0 0 1 0;
#X connect 1 0 9 0;
#X connect 2 0 1 0;
#X connect 3 0 4 0;
#X connect 4 0 1 1;
#X connect 5 0 1 1;
#X connect 9 0 6 0;
#X connect 9 1 7 0;
#X connect 9 2 8 0;
#X restore 133 1028 pd routes;
#X obj 203 1075 poly 4 1;
#X obj 153 365 tgl 15 0 \$0-steel \$0-steel-param Steel_voice 17 7
0 10 -262144 -1 -1 0 1;
#X obj 232 989 r \$0-steel;
#X connect 0 0 81 0;
#X connect 0 1 82 0;
#X connect 1 0 2 0;
#X connect 4 0 23 0;
#X connect 4 1 9 0;
#X connect 5 0 4 0;
#X connect 8 0 31 0;
#X connect 10 0 25 0;
#X connect 12 0 15 0;
#X connect 12 1 21 0;
#X connect 13 0 12 1;
#X connect 14 0 12 0;
#X connect 15 0 21 0;
#X connect 16 0 57 0;
#X connect 17 0 67 0;
#X connect 17 1 68 1;
#X connect 18 0 60 0;
#X connect 19 0 58 1;
#X connect 20 0 16 0;
#X connect 21 0 58 0;
#X connect 21 0 20 0;
#X connect 23 0 16 1;
#X connect 24 0 4 2;
#X connect 24 1 23 1;
#X connect 25 0 24 0;
#X connect 26 0 52 0;
#X connect 28 0 18 0;
#X connect 30 0 52 1;
#X connect 31 0 32 0;
#X connect 32 0 4 1;
#X connect 34 0 35 0;
#X connect 35 0 36 0;
#X connect 44 0 45 0;
#X connect 45 0 33 0;
#X connect 45 0 37 0;
#X connect 45 0 38 0;
#X connect 45 0 39 0;
#X connect 45 0 40 0;
#X connect 45 0 41 0;
#X connect 46 0 47 1;
#X connect 47 0 15 1;
#X connect 48 0 47 0;
#X connect 52 0 42 0;
#X connect 52 1 27 0;
#X connect 53 0 54 0;
#X connect 54 0 17 0;
#X connect 55 0 53 0;
#X connect 56 0 55 0;
#X connect 57 0 17 0;
#X connect 59 0 14 1;
#X connect 60 0 14 0;
#X connect 61 0 60 0;
#X connect 62 0 61 0;
#X connect 63 0 62 1;
#X connect 64 0 62 0;
#X connect 65 0 12 0;
#X connect 66 0 69 0;
#X connect 67 1 66 0;
#X connect 68 0 85 1;
#X connect 69 0 85 0;
#X connect 69 1 68 0;
#X connect 71 0 73 0;
#X connect 72 0 71 0;
#X connect 73 0 4 0;
#X connect 75 0 20 1;
#X connect 76 0 77 0;
#X connect 77 0 78 0;
#X connect 78 0 79 0;
#X connect 79 0 80 0;
#X connect 80 0 81 1;
#X connect 80 1 82 1;
#X connect 81 0 14 0;
#X connect 82 0 14 1;
#X connect 83 0 87 0;
#X connect 84 0 45 0;
#X connect 85 0 91 0;
#X connect 87 0 20 1;
#X connect 89 0 90 1;
#X connect 90 0 86 2;
#X connect 90 1 86 0;
#X connect 90 2 86 1;
#X connect 91 0 90 0;
#X connect 91 1 92 0;
#X connect 92 0 86 2;
#X connect 92 1 86 0;
#X connect 92 2 86 1;
#X connect 94 0 91 1;
#X coords 0 -1 1 1 300 400 1 0 0;
